<svg width="24" height="25" viewBox="0 0 24 25" fill="none" xmlns="http://www.w3.org/2000/svg">
<path d="M15.39 5.71L16.8 8.52999C16.99 8.91999 17.5 9.28999 17.93 9.36999L20.48 9.78999C22.11 10.06 22.49 11.24 21.32 12.42L19.33 14.41C19 14.74 18.81 15.39 18.92 15.86L19.49 18.32C19.94 20.26 18.9 21.02 17.19 20L14.8 18.58C14.37 18.32 13.65 18.32 13.22 18.58L10.83 20C9.12 21.01 8.08001 20.26 8.53001 18.32L9.10002 15.86C9.21002 15.4 9.02001 14.75 8.69001 14.41L6.70002 12.42C5.53002 11.25 5.91002 10.07 7.54002 9.78999L10.09 9.36999C10.52 9.29999 11.03 8.91999 11.22 8.52999L12.63 5.71C13.38 4.18 14.62 4.18 15.39 5.71Z" stroke="#D65341" stroke-width="1.5" stroke-linecap="round" stroke-linejoin="round"/>
<path d="M8 5.5H2" stroke="#D65341" stroke-width="1.5" stroke-linecap="round" stroke-linejoin="round"/>
<path d="M5 19.5H2" stroke="#D65341" stroke-width="1.5" stroke-linecap="round" stroke-linejoin="round"/>
<path d="M3 12.5H2" stroke="#D65341" stroke-width="1.5" stroke-linecap="round" stroke-linejoin="round"/>
</svg>
